<?xml version="1.0" encoding="utf-8"?>
<!-- Generator: Adobe Illustrator 27.5.0, SVG Export Plug-In . SVG Version: 6.00 Build 0)  -->
<svg version="1.1" id="Logos" xmlns="http://www.w3.org/2000/svg" xmlns:xlink="http://www.w3.org/1999/xlink" x="0px" y="0px"
	 viewBox="0 0 232.2 24" style="enable-background:new 0 0 232.2 24;" xml:space="preserve">
<style type="text/css">
	.st0{fill:#FFFFFF;}
</style>
<path class="st0" d="M13.2,14.5c3.6-0.8,5.4-3.1,5.4-7c0-4.7-2.8-7.2-8.3-7.2H6.8v3h3.3c3.4,0,5,1.4,5,4.2s-1.7,4.2-5,4.2H6.8v3h2.9
	l5.6,8.9h4C19.3,23.7,13.2,14.5,13.2,14.5z"/>
<rect y="0.4" class="st0" width="3.3" height="23.3"/>
<path class="st0" d="M46.4,0.4v10H32.8v-10h-3.4v23.3h3.4V13.3h13.6v10.3h3.4V0.4H46.4z"/>
<path class="st0" d="M73.2,0.4H70L59.5,23.7H63l2.1-4.8H78l2.1,4.8h3.6L73.2,0.4z M66.4,15.8l5.1-11.6h0.1l5.1,11.7
	C76.7,15.8,66.4,15.8,66.4,15.8z"/>
<path class="st0" d="M103.5,0.4H93.4v23.3h3.4v-8.6h6.7c5.5,0,8.3-2.5,8.3-7.4S109,0.4,103.5,0.4L103.5,0.4z M103.4,12.1h-6.6V3.3
	h6.6c3.4,0,5.1,1.4,5.1,4.3S106.7,12.1,103.4,12.1z"/>
<path class="st0" d="M129.9,10.2c-4.4-0.5-5.7-1.3-5.7-3.4c0-2.3,2.1-3.9,5.4-3.9s5.8,0.9,7.3,2.6h0.2V2c-1.5-1.2-4.3-2-7.5-2
	c-5.4,0-8.8,2.7-8.8,7c0,4,2.1,5.8,8.2,6.5c4.5,0.5,6,1.5,6,3.7c0,2.5-2.1,3.9-5.6,3.9s-6.5-1-8.6-3h-0.2v3.6c1.9,1.5,5,2.4,8.8,2.4
	c5.6,0,8.9-2.6,8.9-6.9S136.1,10.8,129.9,10.2L129.9,10.2z"/>
<path class="st0" d="M159.3,0c-7.1,0-12.1,5-12.1,12s5,12,12.1,12s12.1-5,12.1-12S166.4,0,159.3,0z M159.3,21c-5.2,0-8.7-3.7-8.7-9
	s3.6-9,8.7-9s8.7,3.7,8.7,9S164.5,21,159.3,21z"/>
<path class="st0" d="M190.9,0.4h-9.1v23.3h9.1c7.8,0,12.4-4.3,12.4-11.7S198.6,0.4,190.9,0.4L190.9,0.4z M190.7,20.7h-5.5V3.3h5.5
	c5.8,0,9.1,3.2,9.1,8.6S196.4,20.7,190.7,20.7z"/>
<path class="st0" d="M228.3,0.4l-7.5,10.3l-7.5-10.3h-4.1l9.9,13.2v10.1h3.4V13.5l9.8-13.1H228.3z"/>
</svg>
