<svg xmlns="http://www.w3.org/2000/svg" xmlns:xlink="http://www.w3.org/1999/xlink" viewBox="0 0 600 242.44"><defs><style>.cls-1{fill:none;}.cls-2{isolation:isolate;}.cls-3{fill:url(#linear-gradient);}.cls-4{clip-path:url(#clip-path);}.cls-10,.cls-5,.cls-6,.cls-7,.cls-8{opacity:0.2;mix-blend-mode:multiply;}.cls-5{fill:url(#linear-gradient-2);}.cls-6{fill:url(#linear-gradient-3);}.cls-7{fill:url(#linear-gradient-4);}.cls-8{fill:url(#linear-gradient-5);}.cls-9{clip-path:url(#clip-path-2);}.cls-10{fill:url(#linear-gradient-6);}</style><linearGradient id="linear-gradient" x1="239" y1="352.8" x2="335.92" y2="-15.1" gradientUnits="userSpaceOnUse"><stop offset="0.09" stop-color="#28213a"/><stop offset="0.22" stop-color="#28233e"/><stop offset="0.37" stop-color="#262a4b"/><stop offset="0.51" stop-color="#24365f"/><stop offset="0.66" stop-color="#22467c"/><stop offset="0.8" stop-color="#1e5aa2"/><stop offset="0.95" stop-color="#1a73cf"/><stop offset="1" stop-color="#187de1"/></linearGradient><clipPath id="clip-path"><rect class="cls-1" width="600" height="242.46"/></clipPath><linearGradient id="linear-gradient-2" x1="-35.82" y1="228.05" x2="478.96" y2="228.05" gradientUnits="userSpaceOnUse"><stop offset="0" stop-color="#28213a"/><stop offset="1" stop-color="#187de1"/></linearGradient><linearGradient id="linear-gradient-3" x1="33.86" y1="157.7" x2="548.64" y2="157.7" gradientUnits="userSpaceOnUse"><stop offset="0" stop-color="#28213a"/><stop offset="1" stop-color="#187de1"/></linearGradient><linearGradient id="linear-gradient-4" x1="103.53" y1="59.48" x2="618.31" y2="59.48" xlink:href="#linear-gradient-2"/><linearGradient id="linear-gradient-5" x1="-306.7" y1="245.82" x2="955" y2="245.82" xlink:href="#linear-gradient-2"/><clipPath id="clip-path-2"><rect class="cls-1" x="-748.05" width="600" height="242.46"/></clipPath><linearGradient id="linear-gradient-6" x1="-1054.75" y1="245.82" x2="206.95" y2="245.82" gradientUnits="userSpaceOnUse"><stop offset="0" stop-color="#28213a"/><stop offset="1" stop-color="#4fbc23"/></linearGradient></defs><g class="cls-2"><g id="Layer_1" data-name="Layer 1"><rect class="cls-3" width="600" height="242.46"/><g class="cls-4"><path class="cls-5" d="M479,46.5m0,0C476.23,47.36-35.82,197-35.82,197l15.37,212.56,496.68-235.9Z"/><path class="cls-6" d="M548.64-23.84m0,0C545.91-23,33.86,126.69,33.86,126.69L49.22,339.25l496.69-235.9Z"/><path class="cls-7" d="M618.31-122.06m0,0c-2.73.85-514.78,150.53-514.78,150.53L118.9,241,615.58,5.13Z"/><path class="cls-8" d="M-306.7-141.72c7.42,9.9,6.19,311.79,6.19,311.79L919.12,633.36,955,252.28Z"/></g><g class="cls-9"><path class="cls-10" d="M-1054.75-141.72c7.43,9.9,6.19,311.79,6.19,311.79L171.07,633.36,207,252.28Z"/></g></g></g></svg>